<?xml version="1.0" encoding="utf-8"?>
<!-- Generator: Adobe Illustrator 22.0.0, SVG Export Plug-In . SVG Version: 6.00 Build 0)  -->
<svg version="1.1" id="Layer_1" xmlns="http://www.w3.org/2000/svg" xmlns:xlink="http://www.w3.org/1999/xlink" x="0px" y="0px"
	 viewBox="0 0 261.7 352.7" style="enable-background:new 0 0 261.7 352.7;" xml:space="preserve">
<style type="text/css">
	.st0{stroke:#FFFFFF;stroke-miterlimit:10;}
	.st1{clip-path:url(#SVGID_2_);}
</style>
<title>logovglab01</title>
<rect x="92" y="101.5" class="st0" width="24.8" height="27.3"/>
<rect x="23" y="101.5" class="st0" width="24.8" height="27.3"/>
<rect x="57.3" y="66.8" class="st0" width="24.8" height="27.3"/>
<rect x="92" y="29.3" class="st0" width="24.8" height="27.3"/>
<rect x="23" y="28.7" class="st0" width="24.8" height="27.3"/>
<path class="st0" d="M261.2,2c0-1.7,0.3-1.5-1.6-1.5H2.1c-1.9,0-1.6-0.2-1.6,1.7c0,82.3,0,164.5,0,246.8c0,0.4,0,0.8,0,1.2
	c0.6,10.6,2.5,21,5.8,31c4.5,14,11.2,26.9,22.2,37c10.5,9.7,22.4,16.7,37.3,17.2c11.9,0.4,23.8,0.6,35.6-0.9
	c7.8-1.2,15.8,1.2,21.7,6.5c3.3,2.9,6,6.5,7.8,10.5l0.7-1.4c5.8-11.3,16.6-17,29.2-15.6c3.2,0.4,6.4,0.8,9.6,1
	c7.5,0.5,15.1,0.5,22.6,0c4.4-0.3,8.9-0.1,13.2-1.4c15.9-4.8,28.1-14.5,37.4-28c6.7-9.7,11-20.6,13.9-32c2.1-8.2,3.7-16.4,3.7-24.8
	C261.2,166.9,261.2,84.5,261.2,2z M253.5,10.8c0,8.5,0,154.8,0,154.8l-0.1,81.6c0,0-0.1,4.7-0.6,6c-0.2,0.1-6.7-1.7-11.2-2.5
	c-3.1-0.6-6.3-1-9.5-1.2c-11.9-0.5-26.4,1.1-37.4,9.2c-7.2,5-19.7,28.5-19.7,28.5s-4.6,7.4-8.6,13.8c-1.2,2.2-2.2,4-3.1,5.3
	c-1.5,2.3-2.6,4-3.1,4c-2.4-0.7-7-2.2-9.8-2.4c-3.7-0.6-6.5-0.9-8.3-1c-6.5-0.6-13-0.6-19.5,0.1c-14.7,1.2-19,4.9-20.2,3.9
	c-3.8-4.8-10.5-16.6-15.1-24.4c-10-16.6-13.2-23.5-20.7-28.8c-1-0.7-2-1.4-3.1-1.9l-2.8-1.5c-4.8-1.8-21.8-9.2-48.8-1.5
	c-1.8,0.4-1.4,0.3-2.2,0c-0.7-0.3-0.6-65.2-0.6-65.2L9.3,10.2c0-0.1,0-0.2,0-0.3c0-0.3,0.2-0.4,0.6-0.4h0.2c0.1,0,235,0,238.4,0h2.3
	c0,0,0.5,0,1.2,0h0.5C253.2,9.5,253.5,9.7,253.5,10.8z"/>
<path class="st0" d="M152.1,61.8c0.7-2,2.3-3.5,4.3-4.1c0.6-0.1,1-0.6,0.9-1.2c0-1.1,0.1-2.2,0.2-3.3c0.3-2.8,1-5.6,2-8.3l3.9-7.6
	c0.4-0.7,0.8-1.4,1.1-2.2c1.2-2.9-0.2-6.1-3.1-7.2c-0.8-0.3-1.7-0.5-2.6-0.4c-1.4,0.1-2.8,0.1-4.1-0.2c-0.9-0.1-1.6-0.9-1.5-1.8l0,0
	c-0.1-1,0.4-1.9,1.4-2c1.8-0.1,2.8-1.2,3.6-2.6c1.6-2.2,4.2-3.3,6.8-2.9c0.6,0,1.1,0.2,1.5,0.6c0.5,0.4,1.1,0.6,1.7,0.5
	c1.3-1,2.8-1.6,4.5-1.7c0.5,0,1-0.2,1.4,0.2c-0.2,1.8-1.4,3.3-3,3.9c-0.3,0.1-0.6,0.2-0.9,0.3c-0.7,0.3-1,0.7-0.7,1.5
	c0.2,0.5,0.4,1.1,0.5,1.6c1.3,4,0.8,8.1,0.4,12.2c-0.1,0.9-0.2,1.9-0.3,2.8c-0.2,0.8,0,1.3,1,0.9c0.1,0,0.2,0,0.4,0
	c2.5-1.1,4.8-2.4,7.5-2.9c3.1-0.4,6.3-0.4,9.5,0.1c3.3,0.3,6.4,1,8.4,3.9c0.7,1.2,1.9,2,3.2,2.4c0.9,0.2,1.7,0.9,2,1.9
	c0.3,0.6,0.1,1.3-0.4,1.6l0,0c-0.3,0.3-0.7,0.1-1,0.2c-0.6,0.3-1.2,0.6-1.1,1.4c0.3,2.3-0.5,4.5-2.1,6.1c-0.4,0.5-0.5,1.2-0.1,1.8
	c0.9,2.2,2.1,4.2,3.6,5.9c1.2,1.7,1.7,3.7,1.5,5.8c-0.1,2.5-0.5,5.1-0.8,7.6c-0.2,2.2-1.7,3.6-2.9,5.1c-1.1,0.6-2.2,0.3-3.3,0.4
	c-0.7,0-1.5,0-2.2,0c-0.5,0-1.1,0-1.3-0.6s0-1.3,0.5-1.7c0.9-0.5,1.7-1.2,2.5-1.9c1.1-1.5,2.5-2.8,3-4.7c0.4-1.3,0-2.7-0.9-3.5
	c-1.4-1.3-2.6-2.8-3.5-4.5c-0.4-0.5-0.8-0.5-1,0.2c-0.1,0.4-0.1,0.8-0.1,1.2c0.1,2.1-0.4,4.2-1.5,6.1c-1.5,2.3-2.2,5.1-2,7.9
	c0.2,0.6,0,1.2-0.5,1.5c-2,0.7-4,0.3-6,0.3c-0.8,0-0.9-0.5-0.8-1.2c0.2-0.8,0.6-1.5,1.2-2.1c1-0.9,1.7-2.1,2.1-3.4
	c0.4-1.2,1-2.2,1.5-3.4c0.8-1.3,1.4-2.8,1.9-4.2c0.3-0.7,0.1-1.4-0.4-1.9c-1.1-1.1-2.2-2.3-3.4-3.4c-1.4-1.4-3.3-1.5-5.1-1.7
	c-0.9-0.1-1.7-0.1-2.6,0c-0.7-0.1-1.4,0-2.1,0.2c-2.1,0.5-2.6,0.9-2.9,3c-0.5,3.2-0.7,6.5-0.6,9.7c0.2,0.7-0.2,1.4-0.9,1.7
	c-1.9,0.7-2.2,2.2-2.3,3.9c0,0.6,0.1,1.2-0.3,1.8c0,0.4-0.1,0.6-0.6,0.7c-2.5,0.3-2.7,0.2-2.6-2.3c0.1-1.3,0.4-2.6,0.7-3.8
	c0.2-2.3,0.1-4.6,0.2-6.9c-0.1-2.2-0.5-4.3-1.2-6.3c-0.4-1.3-1.5-1.3-2.6-1.3c-1.3-0.2-1.9,0.4-2.5,1.5c-1.8,2.7-1.7,5.6-1.2,8.6
	c0.2,1.1,0.6,2.3,0.1,3.5c-0.1,0.1-0.2,0.2-0.4,0.1c-0.7,0-1.5,0-2.2,0s-1.4-0.2-1.5-1c0-1.1-0.3-2.2-1-3c-0.6-0.8-0.8-1.7-0.7-2.6
	C151.9,66.3,152,64,152.1,61.8z"/>
<path class="st0" d="M227.5,158.8c-1.5,0.2-2.9,0.3-4.4,0.2h-2.4c0.3-1.2,1-2.4,1.9-3.3c0.8-0.6,1.3-1.4,1.5-2.4
	c-0.4-0.6,0-1.1,0.3-1.6c0.9-2.1,2.1-4,2.9-6.2c0.5-0.8,0.3-1.9-0.5-2.5c-0.6-0.6-1.1-1.3-1.7-1.9c-1.2-1.5-2.9-2.5-4.8-2.8
	c-0.3,0-0.6-0.1-0.7-0.4c-1.8-0.4-3.6-0.4-5.4,0c-2.5,0.6-3.3,2.4-3.4,4.7c-0.3,2.7-0.4,5.3-0.4,8c0.2,1-0.4,2-1.4,2.3
	c-0.9,0.4-1.6,1.3-1.7,2.3c-0.3,1.2,0.2,2.5-0.5,3.7l0,0h-0.5c-3.2-0.1-2.7,0.7-2.6-2.9c0-0.6,0.2-1.3,0.4-1.9
	c1.3-4.6,1.2-9.4-0.1-13.9c-0.6-2.3-0.8-2.4-3.2-2.4c-1.3,0.2-1.9,1.1-2.6,2.2c-1.6,2.5-1.5,5.1-1.1,7.9c0.1,0.9,0.2,1.8,0.3,2.7
	c0,0.5,0.2,1.1-0.5,1.3s-1.5,0.1-2.3,0.2c-1,0.2-1.4-0.4-1.3-1.2c0.1-1.2-0.4-2.4-1.2-3.3c-0.9-1-0.5-2.5-0.6-3.8c0-0.7,0-1.5,0-2.2
	c0.3-0.7,0-1.5,0.2-2.2c0-0.7,0.1-1.3,0.3-1.9c1.1-1.4,2.6-2.5,4.3-3c0.5-0.1,0.5-0.5,0.5-0.9s0-1.1,0-1.7c0.3-0.4,0-0.8,0.2-1.2
	l0.3-2.7c0.4-1.8,0.8-3.6,1.4-5.4l3.7-7.6c0.9-1.3,1.6-2.7,1.9-4.3c0.3-3.1-1.9-5.9-5-6.2c-0.5-0.1-0.9,0-1.4,0
	c-0.9,0.1-1.8,0.1-2.7,0h-0.3c-0.9,0-2,0-2.4-1c-0.5-1-0.2-2.3,0.7-3l1.5-0.3c0.8-0.1,1.5-0.5,1.9-1.2c0.7-1.4,1.8-2.6,3.2-3.4
	c1.1-1.2,2.8-1.6,4.3-1.1c0.7,0.3,1.4,0.7,2,1.2c0.3,0.4,0.9,0.4,1.2,0l0,0c0.8-0.6,1.8-1.1,2.8-1.5c0.2-0.1,0.5-0.1,0.7-0.1
	c0.6,0,1.3,0,1.9-0.1c0.3,0,0.5,0.1,0.6,0.4c-0.3,2-1.8,3.7-3.7,4.3c-1.3,0.4-1.3,0.5-0.9,1.7c1.2,3.8,1.6,7.7,1,11.7
	c-0.2,1.5-0.3,3.1-0.5,4.6c0,0.4-0.2,0.8,0.1,1s0.7-0.2,1.1-0.3c3.1-1.5,6.2-3,9.7-3.3c1.6-0.1,3.2,0,4.8,0.1c1.3,0.3,2.7,0.3,4,0.7
	c2.9,0.3,5.6,1.9,7.3,4.3c0.7,0.9,1.6,1.6,2.7,2c1,0.2,1.8,0.9,2.2,1.8c0.2,0.7,0.3,1.3-0.4,1.7c-0.6-0.1-1.3,0-1.9,0.2
	c-0.1,0.7-0.2,1.4-0.1,2.1c0.2,1.9-0.5,3.8-1.8,5.1c-0.7,0.6-0.8,1.6-0.4,2.4c0.9,2,2.1,4,3.6,5.7c1.2,1.7,1.8,3.7,1.5,5.8
	c-0.2,2.8-0.5,5.7-0.9,8.5c-0.3,1.8-1.5,2.9-2.8,4c-1,0.5-2.1,0.1-3.2,0.3c-0.8,0-1.5,0-2.3,0c-0.4,0-1,0.3-1.1-0.4
	c-0.2-0.6,0.1-1.2,0.6-1.5c0.8-0.4,1.6-0.9,2.2-1.5c0.1-0.2,0.2-0.3,0.3-0.5c-0.1-0.7,0.4-1,0.8-1.4c0.9-0.9,1.5-2,1.9-3.2
	c0.4-1.3,0.1-2.7-0.9-3.6c-1.4-1.3-2.5-2.9-3.5-4.5c-0.4-0.5-0.8-0.4-1,0.2c-0.1,0.4-0.1,0.7-0.1,1.1c0.1,2.2-0.4,4.3-1.5,6.2
	c-1.5,2.3-2.1,5.1-1.9,7.8C228.1,157.9,228.3,158.6,227.5,158.8z"/>
<path class="st0" d="M195.2,104.5h2.7C197,104.8,196.1,104.8,195.2,104.5z"/>
<path class="st0" d="M196.9,130.7c0,0.4,0.1,0.9-0.2,1.2C196.7,131.5,196.5,131,196.9,130.7z"/>
<path class="st0" d="M191.5,139.5c0.1,0.7,0,1.5-0.2,2.2C191.4,140.9,191.1,140.2,191.5,139.5z"/>
<path class="st0" d="M176.6,60.9c-0.5,0.4-1.2,0-1.7,0.5c-0.2-0.1-0.3-0.2-0.5-0.3C175.1,60.8,175.8,60.8,176.6,60.9z"/>
<path class="st0" d="M229,115v0.2l-4-0.7C226.4,114.4,227.7,114.5,229,115z"/>
<path class="st0" d="M128.8,9.4h7.6v126.1c0,0-0.5,3.1,1.4,4L253.5,194l0.1,8.1c-0.4-0.7-1-1.3-1.7-1.7l-119.3-56.1L9.8,201
	c0,0-0.4,0.1-0.4,0.9v-8.4c0,0,0.1,0.5,1.4-0.1l117.7-54.5c0,0,0.4,0,0.4-1L128.8,9.4z"/>
<path class="st0" d="M253.5,227.8c0,0,0.4-1.1-2.4-2.3l-118.4-55.7L9.9,226.4c0,0-0.5-0.1-0.5,1v-8.7c0,0,0,0.7,0.9,0.3l122.5-56.5
	L252.5,219c0,0,1,0.5,1-0.3V227.8z"/>
<path d="M124,306.9l-0.6-3l4.2-1.2l0.2-10.6l-4.4-1.8v-2.5l4.6-2.6l0.3-9l-4.1-1.5l-0.8-3.5l5.2-1.8v-4l-5-2l5.2-3v-5.5l-5.4-2.6
	l5.6-2.9l0.4-18.3c0,0-3,5.9-7.4,9.1l-1.4-4.8c-1.6,2.2-3.1,4.6-4.4,7.1c0,0-1,2.3-1.9,2.1l-0.2-1.5c-0.2,0.4-0.3,0.9-0.3,1.4
	l-3.3-2.6c-0.6,1-1,2.2-0.9,3.5c0.2,1.8,1,6.2,0,6.8l-5-4.2c0,0,0.4,8,2.2,10.2c-3.2-1.8-6-4.1-8.3-6.9c-0.6-0.9-1.2-1.9-1.5-3
	c0,0-1.8,3.6-1.1,11.3c-3.4-4-6.1-8.6-7.9-13.6c-2.5-7.5,1.6-15.9,4-19.1c1.2-1.3,2.4-2.5,3.7-3.6c0,0,2.6-8.8,5.1-10.6
	c0.7-0.8,1.6-1.4,2.7-1.6c0,0-9.1,0.2-13.5,2.6c0,0,6.6-9.1,12.5-13s15.5-3.8,21.5-2c6.8,2.1,11.7,8,12.3,15.1
	c-0.6-6.5,2.8-12.7,8.5-15.8c10-5.8,20.9-0.6,25.3,3.5s5.7,5.1,5.7,5.1s-8.8-1-11.5,0.1c0.8,0.3,1.6,0.8,2.3,1.3
	c0,0,9.8-1.6,17.8,7.6c2.7,3.2,4.4,7.3,4.6,11.5c0.4,3.7,0.4,7.4,0,11.1c-1.8-3.4-4.2-6.5-7.1-9.1c0.7,2.6,0.5,5.3-0.5,7.8
	c-1.7,4.4-2.1,6-2.1,6s-0.6-3.9-1.6-5.3s-2.1-3.4-2.1-4.2c0,0-1.5,5.3-2.1,6c0,0-0.9,0.7-3-4c-0.3,4.4-1.1,8.7-2.6,12.8l-2.1,5.1
	c0,0-1-7.1-3.7-10c-0.5,2.5-1.6,4.8-3.3,6.7c-2.8,3-4,4.2-4,4.2s0.7-7.9-0.3-10.1c0,0-3.3,4.9-3.9,5.1s-1.2-3.4-1.5-6
	c-0.2-1.6-0.5-3.2-0.9-4.7c0,0-2.6,4.3-2.9,4.1s-2.5-3-3.8-9.3s-2.4-6.9-4-6.8l1.1,0.7v23.9l3,0.8l-0.1,2.5l-2.9,1.9v5.4l3.3,2.7
	l-3.3,0.9v9.4l3.3,1.5l0.7,3.5l-3.8,1.2l0.1,7.6l3.6,1.6v3.4l-3.6,2.2v7.4l3.1,1.7l0.1,1.8l-9.3,3.7L124,306.9z"/>
<g>
	<g>
		<g>
			<g>
				<defs>
					<path id="SVGID_1_" d="M124,306.9l-0.6-3l4.2-1.2l0.2-10.6l-4.4-1.8v-2.5l4.6-2.6l0.3-9l-4.1-1.5l-0.8-3.5l5.2-1.8v-4l-5-2
						l5.2-3v-5.5l-5.4-2.6l5.6-2.9l0.4-18.3c0,0-3,5.9-7.4,9.1l-1.4-4.8c-1.6,2.2-3.1,4.6-4.4,7.1c0,0-1,2.3-1.9,2.1l-0.2-1.5
						c-0.2,0.4-0.3,0.9-0.3,1.4l-3.3-2.6c-0.6,1-1,2.2-0.9,3.5c0.2,1.8,1,6.2,0,6.8l-5-4.2c0,0,0.4,8,2.2,10.2
						c-3.2-1.8-6-4.1-8.3-6.9c-0.6-0.9-1.2-1.9-1.5-3c0,0-1.8,3.6-1.1,11.3c-3.4-4-6.1-8.6-7.9-13.6c-2.5-7.5,1.6-15.9,4-19.1
						c1.2-1.3,2.4-2.5,3.7-3.6c0,0,2.6-8.8,5.1-10.6c0.7-0.8,1.6-1.4,2.7-1.6c0,0-9.1,0.2-13.5,2.6c0,0,6.6-9.1,12.5-13
						s15.5-3.8,21.5-2c6.8,2.1,11.7,8,12.3,15.1c-0.6-6.5,2.8-12.7,8.5-15.8c10-5.8,20.9-0.6,25.3,3.5s5.7,5.1,5.7,5.1
						s-8.8-1-11.5,0.1c0.8,0.3,1.6,0.8,2.3,1.3c0,0,9.8-1.6,17.8,7.6c2.7,3.2,4.4,7.3,4.6,11.5c0.4,3.7,0.4,7.4,0,11.1
						c-1.8-3.4-4.2-6.5-7.1-9.1c0.7,2.6,0.5,5.3-0.5,7.8c-1.7,4.4-2.1,6-2.1,6s-0.6-3.9-1.6-5.3s-2.1-3.4-2.1-4.2c0,0-1.5,5.3-2.1,6
						c0,0-0.9,0.7-3-4c-0.3,4.4-1.1,8.7-2.6,12.8l-2.1,5.1c0,0-1-7.1-3.7-10c-0.5,2.5-1.6,4.8-3.3,6.7c-2.8,3-4,4.2-4,4.2
						s0.7-7.9-0.3-10.1c0,0-3.3,4.9-3.9,5.1s-1.2-3.4-1.5-6c-0.2-1.6-0.5-3.2-0.9-4.7c0,0-2.6,4.3-2.9,4.1s-2.5-3-3.8-9.3
						s-2.4-6.9-4-6.8l1.1,0.7v23.9l3,0.8l-0.1,2.5l-2.9,1.9v5.4l3.3,2.7l-3.3,0.9v9.4l3.3,1.5l0.7,3.5l-3.8,1.2l0.1,7.6l3.6,1.6v3.4
						l-3.6,2.2v7.4l3.1,1.7l0.1,1.8l-9.3,3.7L124,306.9z"/>
				</defs>
				<use xlink:href="#SVGID_1_"  style="overflow:visible;"/>
				<clipPath id="SVGID_2_">
					<use xlink:href="#SVGID_1_"  style="overflow:visible;"/>
				</clipPath>
				<g class="st1">
					<path class="st0" d="M1.2,0.6v2.1c0,80.8,0,161.5,0,242.3c0,5.2,0.3,10.4,1,15.5c1.9,12.9,5.4,25.3,11.3,36.9
						c7.8,15.2,19.2,26.8,34.8,33.9c4.6,2.1,9.3,3.7,14.4,3.9c5.6,0.2,11.2,0.7,16.7,0.7c6.4-0.1,12.8-0.5,19.2-1
						c4-0.3,7.9-0.9,11.8-0.1c9.3,1.7,15.9,7.2,20.3,15.3c0.2,0.4,0.4,0.8,0.7,1.3c0.3-0.5,0.5-0.8,0.6-1.2
						c5.9-11.4,16.7-17.2,29.5-15.7c4.2,0.6,8.5,1,12.8,1.2c8.1,0.1,16.3-0.2,24.5-0.5c2.6,0,5.2-0.4,7.7-1.1
						c14.6-4.2,26.2-12.8,35.3-24.8c7.3-9.4,12-20.1,15.2-31.5c2.8-9.7,4.7-19.6,4.7-29.7c0.1-11.1,0-22.1,0-33.2V0.6H1.2z"/>
					<path class="st0" d="M110.8,242.2l2.1,1.8c1.4,1.3,2.2,1.3,3.3-0.3c0.9-1.4,1.5-2.9,2.3-4.3c0.6-1.1,1.3-2.2,2.2-3.6
						c0.5,1.8,1,3.3,1.5,5c3.4-2.4,5.4-5.6,7.4-8.9c-0.1,5.5-0.3,10.9-0.4,16.2c0.1,1-0.5,1.9-1.4,2.3c-1.5,0.7-2.8,1.7-4.2,2.5
						c-0.4,0.2-0.8,0.2-1.2,0.2c-3.5-0.7-7-1.3-10.5-2c-0.7-0.1-1.2-0.7-1.1-1.4c-0.1-1.5-0.4-3.1-0.4-4.6
						C110.3,244.1,110.5,243.1,110.8,242.2z"/>
					<path class="st0" d="M138.8,226.8c1,0.4,1.7,1.3,1.9,2.4c0.6,2,0.9,4,1.5,5.9c0.7,2.2,1.5,4.4,2.4,6.5c0.3,0.5,0.6,0.9,0.9,1.4
						l2.9-3.9c1.6,3.3,0.5,7.3,2.6,10.7c1.3-1.7,2.5-3.2,3.7-4.7h0.3c0.1,1.6,0.3,3.2,0.4,4.9c0,0.3-0.5,0.8-0.9,0.8
						c-3.6,0.8-7.3,1.5-10.9,2.3c-0.6,0.2-1.4-0.1-1.6-0.7c-0.4-0.4-0.9-0.7-1.4-0.8c-1.1-0.3-1.4-0.8-1.4-1.9
						c0-6.9,0-13.9-0.1-20.8C139,228.3,138.9,227.6,138.8,226.8z"/>
					<path class="st0" d="M169.8,244.6c0.4-2.7,0.9-5.3,1.3-7.7c0.7,1,1.5,2.1,2.4,3.2l0.5-0.1c0.6-1.8,1.2-3.6,1.8-5.4l0.3-0.1
						c0.8,1.6,1.6,3.2,2.3,4.9c0,0.4-0.1,0.7-0.4,0.9c-2.5,1.5-5,3-7.6,4.4C170.3,244.6,170.1,244.6,169.8,244.6z"/>
					<path class="st0" d="M182.2,236.8c0.3-2,0.6-4,0.9-6.1l3.2,3.4l-3.9,3C182.3,237,182.2,236.9,182.2,236.8z"/>
					<path class="st0" d="M160.7,248.3l2-4.4c0.2,0.3,0.4,0.6,0.6,1c0.3,0.8,0.9,2.1,0.7,2.3c-0.9,0.6-1.9,1.1-3,1.5
						C160.8,248.6,160.7,248.5,160.7,248.3z"/>
				</g>
			</g>
		</g>
	</g>
</g>
<path class="st0" d="M124,306.9l-0.6-3l4.2-1.2l0.2-10.6l-4.4-1.8v-2.5l4.6-2.6l0.3-9l-4.1-1.5l-0.8-3.5l5.2-1.8v-4l-5-2l5.2-3v-5.5
	l-5.4-2.6l5.6-2.9l0.4-18.3c0,0-3,5.9-7.4,9.1l-1.4-4.8c-1.6,2.2-3.1,4.6-4.4,7.1c0,0-1,2.3-1.9,2.1l-0.2-1.5
	c-0.2,0.4-0.3,0.9-0.3,1.4l-3.3-2.6c-0.6,1-1,2.2-0.9,3.5c0.2,1.8,1,6.2,0,6.8l-5-4.2c0,0,0.4,8,2.2,10.2c-3.2-1.8-6-4.1-8.3-6.9
	c-0.6-0.9-1.2-1.9-1.5-3c0,0-1.8,3.6-1.1,11.3c-3.4-4-6.1-8.6-7.9-13.6c-2.5-7.5,1.6-15.9,4-19.1c1.2-1.3,2.4-2.5,3.7-3.6
	c0,0,2.6-8.8,5.1-10.6c0.7-0.8,1.6-1.4,2.7-1.6c0,0-9.1,0.2-13.5,2.6c0,0,6.6-9.1,12.5-13s15.5-3.8,21.5-2c6.8,2.1,11.7,8,12.3,15.1
	c-0.6-6.5,2.8-12.7,8.5-15.8c10-5.8,20.9-0.6,25.3,3.5s5.7,5.1,5.7,5.1s-8.8-1-11.5,0.1c0.8,0.3,1.6,0.8,2.3,1.3
	c0,0,9.8-1.6,17.8,7.6c2.7,3.2,4.4,7.3,4.6,11.5c0.4,3.7,0.4,7.4,0,11.1c-1.8-3.4-4.2-6.5-7.1-9.1c0.7,2.6,0.5,5.3-0.5,7.8
	c-1.7,4.4-2.1,6-2.1,6s-0.6-3.9-1.6-5.3s-2.1-3.4-2.1-4.2c0,0-1.5,5.3-2.1,6c0,0-0.9,0.7-3-4c-0.3,4.4-1.1,8.7-2.6,12.8l-2.1,5.1
	c0,0-1-7.1-3.7-10c-0.5,2.5-1.6,4.8-3.3,6.7c-2.8,3-4,4.2-4,4.2s0.7-7.9-0.3-10.1c0,0-3.3,4.9-3.9,5.1s-1.2-3.4-1.5-6
	c-0.2-1.6-0.5-3.2-0.9-4.7c0,0-2.6,4.3-2.9,4.1s-2.5-3-3.8-9.3s-2.4-6.9-4-6.8l1.1,0.7v23.9l3,0.8l-0.1,2.5l-2.9,1.9v5.4l3.3,2.7
	l-3.3,0.9v9.4l3.3,1.5l0.7,3.5l-3.8,1.2l0.1,7.6l3.6,1.6v3.4l-3.6,2.2v7.4l3.1,1.7l0.1,1.8l-9.3,3.7L124,306.9z"/>
</svg>
